<svg width="1200" height="600" xmlns="http://www.w3.org/2000/svg"><g id="Layer_1"><path id="svg_12" d="M-4 301.5 189 184l85-35 74-4L591-2-22-4l18 305.5z" opacity="NaN" fill="#6bb966"/><path id="svg_14" d="M32 358.5-190-70" opacity="NaN" fill="#26a969"/><path id="svg_15" d="m185.84 185.41-208.346 29.926 13.754 90.025" opacity="NaN" fill="#26a969"/><path id="svg_16" d="m0 174.09 157.273-175-170.91-2.726" opacity="NaN" fill="#00844e"/><path fill-opacity=".5" id="svg_17" d="M-1.818 101.364 694.545 0l-729.09-26.364" opacity="NaN" fill="#137249"/><path id="svg_18" d="M1200 434.09 980.91 146.365l-103.637-40-160.91-110.91 518.182-26.363" opacity="NaN" fill="#6bb966"/><path stroke="null" id="svg_20" d="m985.741 152.56 70.009 6.658 148.992 82.562L1220 443.303l-2.693 16.868-2.692 7.102" opacity="NaN" fill="#00844e"/><path stroke="null" id="svg_21" d="m1199.651-3.726-133.395 169 172.945 97.717" opacity="NaN" fill="#26a969"/><path id="svg_22" d="M1201.734 110.618 637.467-5.717l658.906-61.46" opacity="NaN" fill-opacity=".5" fill="#137249"/></g></svg>