<svg width="800" height="700" xmlns="http://www.w3.org/2000/svg"><g id="Layer_1"><g transform="rotate(-179.542 151.987 589.013)" stroke="null" id="svg_10"><path id="svg_5" d="m297.487 483.513-203 55.5-50 35-52 18-29 25 115 31 43 20 96 26 83 10 40-233-43 12.5z" opacity="NaN" fill="#26a969"/><path id="svg_6" d="m181.487 518.513-31 84.5 25 79 41 13 90 12 11-233-136.438 41.312.438 3.188z" opacity="NaN" fill="#00844e"/><path id="svg_8" d="m298.35 596.565 20.862-12.76" opacity="NaN" fill-opacity=".4" fill="#406352"/><path fill-opacity=".4" id="svg_9" d="m298.005 575.185-147.414 28.62-118.966.346-67.586 12.414 114.138 31.034 42.414 20 55.172 14.828 41.38 12.413 80.69 11.38.172-131.035z" opacity="NaN" fill="#406352"/></g></g></svg>