<svg width="497.972" height="210" xmlns="http://www.w3.org/2000/svg"><defs id="defs56"><clipPath id="clipPath66" clipPathUnits="userSpaceOnUse"><path id="path64" d="M-24.578 509.496H396.9V110.904H-24.58v398.592z"/></clipPath></defs><g transform="matrix(1.33333 0 0 -1.33333 0 531.456)" id="g58"><g id="g60"><g clip-path="url('#clipPath66')" id="g62"><g id="g68"><path fill-rule="nonzero" fill="#239050" id="path70" d="M195.954 301.304c-4.597-1.021-8.864-2.854-12.94-5.171-.436-.247-.923-.407-1.395-.584-2.03-.76-2.308-.552-2.267 2.087.05.322.147 1.035.273 1.743.498 2.794.501 2.785 3.377 2.554.424-.034.857.051 1.286.079 3.583.238 7.166.478 10.75.707.284.018.611.04.853-.077.396-.191.738-.494 1.102-.749-.346-.202-.668-.506-1.039-.589m-4.612-14.091c-.566.421-1.41.732-1.628 1.289-.31.789.976 2.016 1.861 1.964 1.174-.069 1.31-.981 1.368-1.858.067-.983-.576-1.206-1.6-1.395m-5.475-29.817c.42-.5.932-.956 1.21-1.525.086-.179-.453-.664-.999-1.409-.497.932-.9 1.452-1.02 2.031-.049.235.52.598.81.903m3.03-8.47c.112 1.657.963 2.537 2.382 2.461 1.373-.074 2.028-.929 1.944-2.537-.106-2.046-.57-2.59-2.125-2.488-1.585.105-2.309.947-2.2 2.564m-21.17 13.423c-.53-.49-.948-.502-1.443.069-.907 1.046-1.172 1.897-1.203 4.236.037.717-.013 1.452.13 2.148.242 1.188 1.373 1.552 2.28.801 1.875-1.555 2-5.622.235-7.254m-3.18 11.949c-.542-1.247-1.246-2.467-2.81-2.654-1.484-.178-3.014-.483-3.989 1.19-.547.938-2.045 1.716-1.242 2.858.424.601 1.906.466 2.915.64.277.048.57.007.855.007l.003.052c1.07-.06 2.146-.048 3.2-.2 1.077-.155 1.477-.947 1.067-1.893m79.493 12.925c-.264.074-.573-.006-.86-.03-3.372-.276-6.738-.651-10.115-.812-6.623-.316-13.25-.514-19.997-.765-3.275 0-6.664-.028-10.052.01-2.096.024-2.37.266-2.534 2.327-.266 3.372-.467 6.749-.665 10.126-.057.976.44 1.564 1.38 1.943.84.338 1.663.824 2.35 1.413a77.342 77.342 0 0 1 4.576 4.255c.95.962 1.778 2.053 2.595 3.136.694.921 1.086 1.923.032 2.889-.99.908-2.04.951-3.146.185-.884-.613-1.724-1.34-2.693-1.772-4.587-2.05-9.417-2.161-14.199-1.114-4.282.937-8.555 1.195-12.885.911a6.447 6.447 0 0 1-2.646-.767c-2.044-1.145-2.953-3.025-3.134-5.336-.207-2.646-.195-5.316-1.38-7.822-1.015-2.144-1.928-2.691-4.173-1.983-4.74 1.496-9.263 3.497-13.676 5.783-1.235.64-1.603 1.498-1.618 2.753-.02 1.728-.165 3.454-.179 5.181-.013 1.882-1.105 2.86-2.776 2.969-2.93.191-5.877.156-8.817.179-.639.005-1.357-.371-1.906-.183-2.702.924-5.64 1.546-7.979 3.07-6.68 4.355-13.118 9.085-19.636 13.69a189.19 189.19 0 0 0-5.61 4.108 19.464 19.464 0 0 1-2.626-.423 2474.092 2474.092 0 0 1 24.08-17.922c1.142-.84 2.11-1.594 2.438-3.098.136-.621.9-1.304 1.54-1.578 2.154-.923 4.382-1.672 6.58-2.494.405-.151.824-.291 1.188-.515.212-.129.477-.437.447-.622-.033-.211-.343-.488-.575-.536-.772-.163-1.563-.239-2.349-.342-2.415-.318-5.073-2.751-5.408-4.958-.804-5.294 2.715-8.67 7.06-8.933 2.343-.141 2.816-.499 2.61-2.818a3.25 3.25 0 0 1 .125-1.284c.443-1.336 1.157-2.673 2.602-2.88 1.692-.243 2.857-1.237 4.191-2.06 1.4-.862 2.834-1.692 4.332-2.359 1.452-.647 2.482-1.487 3.091-3.046 1.09-2.788 2.86-4.99 6.11-5.394 2.06-.256 2.607-.663 3.02-2.691.17-.838.023-1.743.21-2.576.214-.953.376-2.172 1.028-2.716 1.17-.976 2.311-2.182 4.061-2.288 1.421-.085 2.053-.994 2.341-2.391.375-1.814.877-3.626 1.562-5.344.786-1.974 2.258-3.31 4.464-3.672 1.702-.279 3.414-.53 5.092-.92.725-.168 1.511-.512 2.04-1.018 2.901-2.784 6.482-3.071 10.085-2.466 3.672.616 4.823 4.801 2.207 7.418-2.582 2.585-2.406 2.482.25 4.39 1.4 1.004 1.706 2.38.774 3.763a23.38 23.38 0 0 1-3.01 3.625c-2.737 2.681-6.46 3.651-9.722 5.428-3.594 1.959-7.269 3.837-9.899 7.126-.354.443-.6 1.163-.514 1.692.045.276.92.571 1.43.59 2.307.088 4.132 1.056 5.65 2.755.861.964 1.88 1.793 2.707 2.783 1.58 1.887 3.372 2.625 5.89 1.982 5.376-1.371 5.61-1.757 5.433-7.17-.053-1.583-.324-3.161-.336-4.742-.02-2.596.871-3.663 3.42-3.696 2.406-.03 4.536-.714 6.515-1.95 1.397-.872 2.893-.78 4.401-.698 1.073.058 1.356.757 1.018 1.666-.433 1.163-1.079 2.102-2.329 2.672-1.416.647-2.935 1.364-3.98 2.459-1.788 1.871-2.255 4.45-2.803 6.918-.224 1.009.2 1.518 1.218 1.543.648.016 1.298.005 1.947.023 4.971.139 9.946.219 14.912.44 5.246.233 10.49.567 15.728.92 3.3.223 6.646.238 9.775 1.535.455.188.805.633 1.203.96-.493.194-.974.427-1.48.568"/></g></g></g><g fill="#fff" font-family="'Bebas Neue Bold'" font-size="77.95" font-weight="bold" id="text76" transform="scale(1 -1)" aria-label="майский гром"><path id="path526" d="M5.597-330.016v-54.58h11.914l6.318 38.746 5.861-38.746h11.914v54.58h-8.108v-39.127l-5.937 39.127h-8.107l-6.395-38.594v38.594h-7.46z"/><path id="path528" d="m45.599-330.016 8.716-54.58h12.56l8.716 54.58h-8.64l-1.484-9.896H54.924l-1.485 9.896H45.6zm10.429-17.318h8.259l-4.11-27.595-4.15 27.595z"/><path id="path530" d="M79.57-330.016h8.792l7.194-25.006 3.502-13.436v38.442h7.726v-54.58h-9.44l-7.002 22.532-3.122 12.028v-34.56h-7.65v54.58zm4.758-66.722h5.29q.153 2.055.99 2.817.875.76 2.664.76 1.865 0 2.817-.76.951-.762 1.104-2.817h5.214q0 4.073-2.322 6.356-2.321 2.284-6.813 2.284-4.377 0-6.622-2.246-2.208-2.283-2.322-6.394z"/><path id="path532" d="M112.287-343.11v-28.393q0-6.585 3.274-10.125 3.273-3.577 9.515-3.577 6.242 0 9.516 3.577 3.273 3.54 3.273 10.125v5.328h-8.107v-5.861q0-5.367-4.415-5.367-4.454 0-4.454 5.367v29.46q0 5.328 4.454 5.328 4.415 0 4.415-5.328v-7.803h8.107v7.27q0 6.584-3.273 10.162-3.274 3.54-9.516 3.54t-9.515-3.54q-3.274-3.578-3.274-10.162z"/><path id="path534" d="M143.1-330.016v-54.58h8.563v23.788l11.228-23.788h8.564l-11.913 24.321 11.913 30.259h-8.792l-8.335-21.733-2.665 4.986v16.747H143.1z"/><path id="path536" d="M175.37-330.016v-54.58h7.651v34.56l3.121-12.028 7.003-22.532h9.44v54.58h-7.727v-38.442l-3.502 13.436-7.193 25.006h-8.792z"/><path id="path538" d="M208.655-330.016h8.793l7.193-25.006 3.502-13.436v38.442h7.726v-54.58h-9.439l-7.003 22.532-3.121 12.028v-34.56h-7.65v54.58zm4.758-66.722h5.29q.153 2.055.99 2.817.876.76 2.664.76 1.865 0 2.817-.76.952-.762 1.104-2.817h5.214q0 4.073-2.322 6.356-2.321 2.284-6.813 2.284-4.377 0-6.622-2.246-2.208-2.283-2.322-6.394z"/><path id="path540" d="M243.731-267.033v-54.58h22.609v7.803h-14.045v46.777h-8.564z"/><path id="path542" d="M272.107-267.033v-54.58h12.636q6.356 0 9.553 3.464 3.236 3.463 3.236 10.048v7.08q0 6.584-3.236 10.048-3.197 3.425-9.553 3.425h-4.073v20.515h-8.563zm8.563-28.28h4.073q2.131 0 3.16-1.18 1.027-1.179 1.027-3.996v-8.183q0-2.816-1.028-3.958-1.028-1.18-3.159-1.18h-4.073v18.498z"/><path id="path544" d="M300.77-280.126v-28.394q0-6.546 3.388-10.124 3.388-3.578 9.668-3.578 6.28 0 9.63 3.578 3.387 3.578 3.387 10.124v28.394q0 6.547-3.388 10.125-3.35 3.577-9.63 3.577-6.28 0-9.667-3.577-3.387-3.578-3.387-10.125zm8.602.533q0 5.405 4.454 5.405 4.415 0 4.415-5.405v-29.46q0-5.366-4.415-5.366-4.454 0-4.454 5.367v29.46z"/><path id="path546" d="M332.286-267.033v-54.58h11.913l6.318 38.747 5.862-38.747h11.913v54.58h-8.107v-39.127l-5.938 39.127h-8.107l-6.394-38.594v38.594h-7.46z"/></g></g></svg>