<svg width="1200" height="600" xmlns="http://www.w3.org/2000/svg">
 <g id="Layer_1">
  <title>Layer 1</title>
  <path id="svg_12" d="m-4,301.5l193,-117.5l85,-35l74,-4l243,-147l-613,-2l18,305.5z" opacity="NaN" fill="#6bb966"/>
  <path id="svg_14" d="m32,358.5l-222,-428.5" opacity="NaN" fill="#26a969"/>
  <path id="svg_15" d="m185.84079,185.41031l-208.34697,29.92584l13.75378,90.02472" opacity="NaN" fill="#26a969"/>
  <path id="svg_16" d="m0,174.09091l157.27273,-175l-170.90909,-2.72727" opacity="NaN" fill="#00844e"/>
  <path fill-opacity="0.5" id="svg_17" d="m-1.81818,101.36364l696.36364,-101.36364l-729.09091,-26.36364" opacity="NaN" fill="#137249"/>
  <path id="svg_18" d="m1200,434.09091l-219.09091,-287.72727l-103.63636,-40l-160.90909,-110.90909l518.18182,-26.36364" opacity="NaN" fill="#6bb966"/>
  <path id="svg_19" d="m190.90909,-43.18182" opacity="NaN" fill="#6bb966"/>
  <path stroke="null" id="svg_20" d="m985.74118,152.55939l70.00838,6.65825l148.9922,82.56231l15.25824,201.52307l-2.69263,16.86757l-2.69263,7.10213" opacity="NaN" fill="#00844e"/>
  <path stroke="null" id="svg_21" d="m1199.65131,-3.72576l-133.39528,169.00064l172.94502,97.71589" opacity="NaN" fill="#26a969"/>
  <path id="svg_22" d="m1201.73432,110.61806l-564.26758,-116.33525l658.90621,-61.4598" opacity="NaN" fill-opacity="0.5" fill="#137249"/>
 </g>
</svg>