<svg width="800" height="700" xmlns="http://www.w3.org/2000/svg">
 <g id="Layer_1">
  <title>Layer 1</title>
  <g transform="rotate(-179.542 151.987 589.013)" stroke="null" id="svg_10">
   <path stroke="null" id="svg_5" d="m297.48675,483.51267l-203,55.5l-50,35l-52,18l-29,25l115,31l43,20l96,26l83,10l40,-233l-43,12.5z" opacity="NaN" fill="#26a969"/>
   <path stroke="null" id="svg_6" d="m181.48675,518.51267l-31,84.5l25,79l41,13l90,12l11,-233l-136.43753,41.31238l0.43753,3.18762z" opacity="NaN" fill="#00844e"/>
   <path stroke="null" id="svg_8" d="m298.34996,596.56477l20.86167,-12.7589" opacity="NaN" fill-opacity="0.4" fill="#406352"/>
   <path stroke="null" fill-opacity="0.4" id="svg_9" d="m298.00513,575.18544l-147.41434,28.62045l-118.96562,0.34483l-67.58627,12.4138l114.13803,31.03451l42.41383,20.00002l55.17246,14.8276l41.37935,12.4138l80.68973,11.37932l0.17283,-131.03433z" opacity="NaN" fill="#406352"/>
  </g>
 </g>

</svg>