<svg width="497.97198" height="210" xmlns="http://www.w3.org/2000/svg" version="1.1">
 <defs id="defs56">
  <clipPath id="clipPath66" clipPathUnits="userSpaceOnUse">
   <path id="path64" d="m-24.57844,509.4958l421.479,0l0,-398.592l-421.479,0l0,398.592z"/>
  </clipPath>
 </defs>
 <g>
  <title>Layer 1</title>
  <g transform="matrix(1.3333333,0,0,-1.3333333,0,531.456)" id="g58">
   <g id="g60">
    <g clip-path="url(#clipPath66)" id="g62">
     <g id="g68">
      <path fill-rule="nonzero" fill="#239050" id="path70" d="m195.95415,301.30401c-4.597,-1.021 -8.864,-2.854 -12.941,-5.171c-0.435,-0.247 -0.922,-0.407 -1.394,-0.584c-2.03,-0.76 -2.308,-0.552 -2.267,2.087c0.05,0.322 0.147,1.035 0.273,1.743c0.498,2.794 0.501,2.785 3.377,2.554c0.424,-0.034 0.857,0.051 1.286,0.079c3.583,0.238 7.166,0.478 10.75,0.707c0.284,0.018 0.611,0.04 0.853,-0.077c0.396,-0.191 0.738,-0.494 1.102,-0.749c-0.346,-0.202 -0.668,-0.506 -1.039,-0.589m-4.612,-14.091c-0.566,0.421 -1.41,0.732 -1.628,1.289c-0.31,0.789 0.976,2.016 1.861,1.964c1.174,-0.069 1.31,-0.981 1.368,-1.858c0.067,-0.983 -0.576,-1.206 -1.601,-1.395m-5.474,-29.817c0.42,-0.5 0.932,-0.956 1.209,-1.525c0.087,-0.179 -0.452,-0.664 -0.998,-1.409c-0.497,0.932 -0.901,1.452 -1.021,2.031c-0.048,0.235 0.521,0.598 0.81,0.903m3.031,-8.47c0.112,1.657 0.963,2.537 2.382,2.461c1.373,-0.074 2.028,-0.929 1.944,-2.537c-0.106,-2.046 -0.571,-2.59 -2.125,-2.488c-1.585,0.105 -2.309,0.947 -2.201,2.564m-21.17,13.423c-0.529,-0.49 -0.947,-0.502 -1.442,0.069c-0.907,1.046 -1.172,1.897 -1.203,4.236c0.037,0.717 -0.013,1.452 0.13,2.148c0.242,1.188 1.373,1.552 2.279,0.801c1.876,-1.555 2.001,-5.622 0.236,-7.254m-3.181,11.949c-0.541,-1.247 -1.245,-2.467 -2.809,-2.654c-1.484,-0.178 -3.014,-0.483 -3.989,1.19c-0.547,0.938 -2.045,1.716 -1.242,2.858c0.424,0.601 1.906,0.466 2.915,0.64c0.277,0.048 0.57,0.007 0.855,0.007l0.003,0.052c1.069,-0.06 2.146,-0.048 3.2,-0.2c1.077,-0.155 1.477,-0.947 1.067,-1.893m79.493,12.925c-0.264,0.074 -0.573,-0.006 -0.86,-0.03c-3.372,-0.276 -6.738,-0.651 -10.115,-0.812c-6.623,-0.316 -13.251,-0.514 -19.997,-0.765c-3.275,0 -6.664,-0.028 -10.052,0.01c-2.096,0.024 -2.371,0.266 -2.534,2.327c-0.266,3.372 -0.467,6.749 -0.665,10.126c-0.057,0.976 0.44,1.564 1.38,1.943c0.84,0.338 1.663,0.824 2.349,1.413c1.578,1.358 3.114,2.774 4.577,4.255c0.95,0.962 1.778,2.053 2.595,3.136c0.694,0.921 1.086,1.923 0.032,2.889c-0.991,0.908 -2.041,0.951 -3.146,0.185c-0.884,-0.613 -1.724,-1.34 -2.693,-1.772c-4.587,-2.05 -9.417,-2.161 -14.199,-1.114c-4.282,0.937 -8.555,1.195 -12.885,0.911c-0.899,-0.059 -1.862,-0.328 -2.646,-0.767c-2.044,-1.145 -2.953,-3.025 -3.134,-5.336c-0.207,-2.646 -0.195,-5.316 -1.38,-7.822c-1.015,-2.144 -1.928,-2.691 -4.173,-1.983c-4.741,1.496 -9.263,3.497 -13.676,5.783c-1.235,0.64 -1.603,1.498 -1.618,2.753c-0.021,1.728 -0.165,3.454 -0.179,5.181c-0.013,1.882 -1.105,2.86 -2.776,2.969c-2.931,0.191 -5.877,0.156 -8.817,0.179c-0.639,0.005 -1.357,-0.371 -1.906,-0.183c-2.702,0.924 -5.641,1.546 -7.979,3.07c-6.681,4.355 -13.118,9.085 -19.636,13.69c-1.892,1.338 -3.769,2.701 -5.611,4.108c-0.891,-0.09 -1.776,-0.217 -2.625,-0.423c7.988,-6.025 16.019,-11.994 24.08,-17.922c1.142,-0.84 2.109,-1.594 2.438,-3.098c0.136,-0.621 0.899,-1.304 1.539,-1.578c2.155,-0.923 4.383,-1.672 6.58,-2.494c0.406,-0.151 0.825,-0.291 1.189,-0.515c0.212,-0.129 0.477,-0.437 0.447,-0.622c-0.033,-0.211 -0.343,-0.488 -0.575,-0.536c-0.772,-0.163 -1.563,-0.239 -2.349,-0.342c-2.415,-0.318 -5.073,-2.751 -5.408,-4.958c-0.804,-5.294 2.715,-8.67 7.06,-8.933c2.343,-0.141 2.816,-0.499 2.609,-2.818c-0.038,-0.423 -0.007,-0.884 0.126,-1.284c0.443,-1.336 1.157,-2.673 2.602,-2.88c1.692,-0.243 2.857,-1.237 4.191,-2.06c1.399,-0.862 2.834,-1.692 4.332,-2.359c1.452,-0.647 2.482,-1.487 3.091,-3.046c1.09,-2.788 2.86,-4.99 6.109,-5.394c2.06,-0.256 2.608,-0.663 3.021,-2.691c0.17,-0.838 0.023,-1.743 0.21,-2.576c0.214,-0.953 0.376,-2.172 1.028,-2.716c1.17,-0.976 2.311,-2.182 4.061,-2.288c1.421,-0.085 2.053,-0.994 2.341,-2.391c0.375,-1.814 0.877,-3.626 1.562,-5.344c0.786,-1.974 2.258,-3.31 4.464,-3.672c1.702,-0.279 3.414,-0.53 5.092,-0.92c0.725,-0.168 1.511,-0.512 2.039,-1.018c2.902,-2.784 6.483,-3.071 10.086,-2.466c3.672,0.616 4.823,4.801 2.207,7.418c-2.582,2.585 -2.406,2.482 0.25,4.39c1.399,1.004 1.706,2.38 0.774,3.763c-0.874,1.298 -1.893,2.53 -3.011,3.625c-2.736,2.681 -6.46,3.651 -9.721,5.428c-3.594,1.959 -7.269,3.837 -9.899,7.126c-0.354,0.443 -0.601,1.163 -0.514,1.692c0.045,0.276 0.919,0.571 1.429,0.59c2.308,0.088 4.133,1.056 5.651,2.755c0.861,0.964 1.879,1.793 2.707,2.783c1.58,1.887 3.372,2.625 5.89,1.982c5.376,-1.371 5.61,-1.757 5.433,-7.17c-0.053,-1.583 -0.324,-3.161 -0.336,-4.742c-0.02,-2.596 0.871,-3.663 3.419,-3.696c2.407,-0.03 4.537,-0.714 6.516,-1.95c1.397,-0.872 2.893,-0.78 4.401,-0.698c1.073,0.058 1.356,0.757 1.018,1.666c-0.433,1.163 -1.079,2.102 -2.329,2.672c-1.416,0.647 -2.935,1.364 -3.981,2.459c-1.787,1.871 -2.254,4.45 -2.802,6.918c-0.224,1.009 0.199,1.518 1.218,1.543c0.648,0.016 1.298,0.005 1.947,0.023c4.971,0.139 9.946,0.219 14.912,0.44c5.246,0.233 10.489,0.567 15.728,0.92c3.3,0.223 6.646,0.238 9.775,1.535c0.455,0.188 0.805,0.633 1.203,0.96c-0.493,0.194 -0.974,0.427 -1.481,0.568"/>
     </g>
    </g>
   </g>
   <g fill="#231f20" font-family="'Bebas Neue Bold'" font-size="77.95px" font-weight="bold" id="text76" transform="scale(1,-1)" aria-label="майский гром">
    <path id="path526" d="m5.59738,-330.01608l0,-54.58023l11.91326,0l6.31821,38.74663l5.86147,-38.74663l11.91326,0l0,54.58023l-8.1071,0l0,-39.12725l-5.9376,39.12725l-8.1071,0l-6.39434,-38.59439l0,38.59439l-7.46006,0z"/>
    <path id="path528" d="m45.59883,-330.01608l8.71608,-54.58023l12.56031,0l8.71609,54.58023l-8.63997,0l-1.4844,-9.896l-10.54304,0l-1.4844,9.896l-7.84067,0zm10.42885,-17.318l8.25935,0l-4.11064,-27.5946l-4.14871,27.5946z"/>
    <path id="path530" d="m79.5701,-330.01608l8.79221,0l7.19363,-25.00642l3.50166,-13.43572l0,38.44214l7.72649,0l0,-54.58023l-9.43926,0l-7.00332,22.53243l-3.12104,12.02744l0,-34.55987l-7.65037,0l0,54.58023zm4.75769,-66.72185l5.29055,0q0.15225,2.05532 0.9896,2.81655q0.87542,0.76123 2.66431,0.76123q1.86502,0 2.81655,-0.76123q0.95154,-0.76123 1.10379,-2.81655l5.21443,0q0,4.07258 -2.32176,6.35627q-2.32175,2.28369 -6.81301,2.28369q-4.37707,0 -6.6227,-2.24563q-2.20757,-2.28369 -2.32176,-6.39433z"/>
    <path id="path532" d="m112.28749,-343.10925l0,-28.39389q0,-6.58464 3.27329,-10.12437q3.27329,-3.57778 9.51538,-3.57778q6.24209,0 9.51538,3.57778q3.27329,3.53973 3.27329,10.12437l0,5.32861l-8.10711,0l0,-5.86147q0,-5.36668 -4.41513,-5.36668q-4.4532,0 -4.4532,5.36668l0,29.45961q0,5.32862 4.4532,5.32862q4.41513,0 4.41513,-5.32862l0,-7.80261l8.10711,0l0,7.26975q0,6.58465 -3.27329,10.16243q-3.27329,3.53972 -9.51538,3.53972q-6.24209,0 -9.51538,-3.53972q-3.27329,-3.57778 -3.27329,-10.16243z"/>
    <path id="path534" d="m143.09936,-330.01608l0,-54.58023l8.56384,0l0,23.78846l11.22815,-23.78846l8.56385,0l-11.91326,24.32132l11.91326,30.25891l-8.79222,0l-8.33547,-21.73313l-2.66431,4.98606l0,16.74707l-8.56384,0z"/>
    <path id="path536" d="m175.37065,-330.01608l0,-54.58023l7.65036,0l0,34.55987l3.12105,-12.02744l7.00332,-22.53243l9.43926,0l0,54.58023l-7.72649,0l0,-38.44214l-3.50166,13.43572l-7.19363,25.00642l-8.79221,0z"/>
    <path id="path538" d="m208.6553,-330.01608l8.79221,0l7.19363,-25.00642l3.50166,-13.43572l0,38.44214l7.72649,0l0,-54.58023l-9.43926,0l-7.00332,22.53243l-3.12104,12.02744l0,-34.55987l-7.65037,0l0,54.58023zm4.75769,-66.72185l5.29055,0q0.15225,2.05532 0.9896,2.81655q0.87542,0.76123 2.66431,0.76123q1.86501,0 2.81655,-0.76123q0.95154,-0.76123 1.10379,-2.81655l5.21442,0q0,4.07258 -2.32175,6.35627q-2.32175,2.28369 -6.81301,2.28369q-4.37708,0 -6.62271,-2.24563q-2.20756,-2.28369 -2.32175,-6.39433z"/>
    <path id="path540" d="m243.73098,-267.0325l0,-54.58022l22.60855,0l0,7.80261l-14.04471,0l0,46.77761l-8.56384,0z"/>
    <path id="path542" d="m272.10661,-267.0325l0,-54.58022l12.63643,0q6.35627,0 9.55344,3.46359q3.23523,3.4636 3.23523,10.04825l0,7.07944q0,6.58464 -3.23523,10.04824q-3.19717,3.42554 -9.55344,3.42554l-4.07259,0l0,20.51516l-8.56384,0zm8.56384,-28.27971l4.07259,0q2.13144,0 3.1591,-1.17991q1.02766,-1.17991 1.02766,-3.99646l0,-8.18323q0,-2.81655 -1.02766,-3.95839q-1.02766,-1.17991 -3.1591,-1.17991l-4.07259,0l0,18.4979z"/>
    <path id="path544" d="m300.77059,-280.12566l0,-28.3939q0,-6.54658 3.38747,-10.12436q3.38748,-3.57779 9.66763,-3.57779q6.28015,0 9.62956,3.57779q3.38748,3.57778 3.38748,10.12436l0,28.3939q0,6.54658 -3.38748,10.12436q-3.34941,3.57778 -9.62956,3.57778q-6.28015,0 -9.66763,-3.57778q-3.38747,-3.57778 -3.38747,-10.12436zm8.6019,0.53286q0,5.40473 4.4532,5.40473q4.41514,0 4.41514,-5.40473l0,-29.45962q0,-5.36668 -4.41514,-5.36668q-4.4532,0 -4.4532,5.36668l0,29.45962z"/>
    <path id="path546" d="m332.28583,-267.0325l0,-54.58022l11.91325,0l6.31822,38.74663l5.86147,-38.74663l11.91326,0l0,54.58022l-8.10711,0l0,-39.12725l-5.93759,39.12725l-8.10711,0l-6.39433,-38.59438l0,38.59438l-7.46006,0z"/>
   </g>
  </g>
 </g>
</svg>